<svg width="512" height="512" viewBox="0 0 512 512" fill="none" xmlns="http://www.w3.org/2000/svg">
<rect width="512" height="512" rx="116" fill="#272848"/>
<g clip-path="url(#clip0)">
<path d="M411 410.984V392.761H358.278V177.457C358.278 159.625 352.217 143.185 342.051 130.08C356.763 127.99 368.114 115.318 368.114 100.038H349.892C349.892 106.725 344.451 112.166 337.764 112.166H328.703C326.707 112.166 324.728 112.238 322.767 112.378C310.675 104.561 296.278 100.016 280.839 100.016H230.152C214.713 100.016 200.316 104.561 188.224 112.378C186.263 112.238 184.284 112.166 182.288 112.166H173.227C166.54 112.166 161.099 106.725 161.099 100.038H142.877C142.877 115.318 154.228 127.99 168.94 130.08C158.774 143.185 152.712 159.625 152.712 177.457V266.802C152.712 305.314 167.709 341.522 194.942 368.754C204.491 378.302 215.145 386.34 226.613 392.761H100V410.984H411ZM340.056 351.001C326.724 347.06 316.965 334.711 316.965 320.12V304.243H298.742V320.12C298.742 344.812 316.588 365.401 340.056 369.704V392.189C304.469 387.695 276.858 357.238 276.858 320.452V268.88C302.666 265.901 325.259 252.21 340.056 232.372V351.001ZM230.152 118.239H280.838C285.433 118.239 289.907 118.765 294.204 119.761C277.551 127.48 263.889 140.596 255.495 156.862C247.102 140.596 233.439 127.48 216.786 119.761C221.083 118.765 225.557 118.239 230.152 118.239ZM193.095 131.304C223.309 136.456 246.384 162.824 246.384 194.484V215.645H264.606V194.484C264.606 162.824 287.681 136.456 317.896 131.304C331.397 142.167 340.056 158.818 340.056 177.457C340.056 218.16 306.941 251.274 266.238 251.274H244.752C204.049 251.274 170.935 218.159 170.935 177.457C170.935 158.818 179.593 142.167 193.095 131.304ZM170.935 266.802V232.372C187.729 254.889 214.566 269.496 244.752 269.496H258.635V320.452C258.635 349.949 272.818 376.194 294.72 392.734C226.265 391.568 170.935 335.529 170.935 266.802Z" fill="white"/>
<path d="M300.899 201.623C309.758 201.623 316.965 194.416 316.965 185.558C316.965 176.699 309.758 169.492 300.899 169.492C292.041 169.492 284.834 176.699 284.834 185.558C284.834 194.416 292.041 201.623 300.899 201.623Z" fill="white"/>
<path d="M210.091 201.623C218.95 201.623 226.157 194.416 226.157 185.558C226.157 176.699 218.95 169.492 210.091 169.492C201.232 169.492 194.025 176.699 194.025 185.558C194.025 194.416 201.232 201.623 210.091 201.623Z" fill="white"/>
</g>
<defs>
<clipPath id="clip0">
<rect width="311" height="311" fill="white" transform="translate(100 100)"/>
</clipPath>
</defs>
</svg>
