<svg width="512" height="512" viewBox="0 0 512 512" fill="none" xmlns="http://www.w3.org/2000/svg">
<g clip-path="url(#clip0_730_537)">
<g clip-path="url(#clip1_730_537)">
<path d="M0 113.664C0 50.8891 50.8891 0 113.664 0H398.336C461.111 0 512 50.8891 512 113.664V398.336C512 461.111 461.111 512 398.336 512H113.664C50.8891 512 0 461.111 0 398.336V113.664Z" fill="url(#paint0_linear_730_537)"/>
<g clip-path="url(#clip2_730_537)">
<path fill-rule="evenodd" clip-rule="evenodd" d="M419.84 419.84V400.638H364.291V173.762C364.291 154.972 357.904 137.648 347.193 123.84C362.694 121.637 374.654 108.284 374.654 92.1831H355.454C355.454 99.2296 349.722 104.963 342.676 104.963H333.129C331.026 104.963 328.941 105.038 326.875 105.186C314.134 96.9484 298.965 92.16 282.698 92.16H229.293C213.025 92.16 197.856 96.9484 185.116 105.186C183.05 105.038 180.965 104.963 178.861 104.963H169.315C162.269 104.963 156.536 99.2296 156.536 92.1831H137.336C137.336 108.284 149.297 121.637 164.797 123.84C154.086 137.648 147.699 154.972 147.699 173.762V267.909C147.699 308.491 163.501 346.645 192.194 375.341C202.255 385.402 213.481 393.872 225.564 400.638H92.16V419.84H419.84ZM345.091 356.633C331.044 352.481 320.762 339.469 320.762 324.093V307.363H301.562V324.093C301.562 350.112 320.364 371.808 345.091 376.342V400.035C307.596 395.3 278.503 363.206 278.503 324.442V270.099C305.696 266.961 329.501 252.533 345.091 231.629V356.633ZM229.293 111.362H282.697C287.539 111.362 292.253 111.916 296.78 112.965C279.234 121.099 264.838 134.921 255.995 152.061C247.151 134.921 232.756 121.099 215.21 112.965C219.737 111.916 224.451 111.362 229.293 111.362ZM190.248 125.129C222.083 130.558 246.395 158.344 246.395 191.705V214.003H265.595V191.705C265.595 158.344 289.907 130.558 321.742 125.129C335.968 136.576 345.091 154.122 345.091 173.762C345.091 216.653 310.2 251.546 267.314 251.546H244.676C201.789 251.546 166.899 216.653 166.899 173.762C166.899 154.122 176.022 136.576 190.248 125.129ZM166.899 267.909V231.629C184.594 255.356 212.871 270.748 244.676 270.748H259.303V324.442C259.303 355.525 274.246 383.181 297.324 400.609C225.197 399.381 166.899 340.33 166.899 267.909ZM303.834 199.227C313.168 199.227 320.762 191.634 320.762 182.299C320.762 172.964 313.168 165.37 303.834 165.37C294.501 165.37 286.907 172.964 286.907 182.299C286.907 191.634 294.501 199.227 303.834 199.227ZM225.083 182.299C225.083 191.634 217.489 199.227 208.156 199.227C198.822 199.227 191.228 191.634 191.228 182.299C191.228 172.964 198.822 165.37 208.156 165.37C217.489 165.37 225.083 172.964 225.083 182.299Z" fill="white"/>
</g>
</g>
</g>
<defs>
<linearGradient id="paint0_linear_730_537" x1="451.072" y1="464.384" x2="35.84" y2="29.696" gradientUnits="userSpaceOnUse">
<stop stop-color="#945FFE"/>
<stop offset="1" stop-color="#0079FF"/>
</linearGradient>
<clipPath id="clip0_730_537">
<rect width="512" height="512" fill="white"/>
</clipPath>
<clipPath id="clip1_730_537">
<rect width="512" height="512" fill="white"/>
</clipPath>
<clipPath id="clip2_730_537">
<rect width="327.68" height="327.68" fill="white" transform="translate(92.16 92.16)"/>
</clipPath>
</defs>
</svg>
